<svg xmlns="http://www.w3.org/2000/svg" width="1080" height="1080" viewBox="0 0 1080 1080" version="1.1"><path d="M 253.500 54.120 C 181.551 90.369, 119.746 153.231, 70.239 240.514 C 63.518 252.364, 43 295.167, 43 297.338 C 43 297.670, 41.890 300.368, 40.533 303.335 C 36.251 312.696, 23.952 347.662, 24.051 350.193 C 24.079 350.912, 26.729 344.075, 29.939 335 C 76.431 203.577, 153.365 107.340, 253.500 55.346 C 262.300 50.776, 269.050 47.044, 268.500 47.052 C 267.950 47.060, 261.200 50.241, 253.500 54.120 M 787 47.314 C 787 47.561, 790.938 49.432, 795.750 51.472 C 896.936 94.372, 982.759 172.397, 1024.570 259.500 C 1035.938 283.182, 1051 326.114, 1051 334.833 C 1051 335.658, 1051.259 336.075, 1051.574 335.759 C 1052.181 335.152, 1048.376 316.418, 1047.289 314.658 C 1046.939 314.092, 1045.637 310.225, 1044.395 306.065 C 1018.876 220.576, 952.829 140.515, 861.500 84.364 C 845.932 74.793, 806.805 54, 804.362 54 C 803.994 54, 800.950 52.710, 797.597 51.134 C 791.036 48.049, 787 46.595, 787 47.314 M 604.500 293.187 C 563.515 296.004, 523.757 319.940, 489.673 362.317 C 457.428 402.407, 444.259 443.876, 441.978 512.500 C 439.567 585.071, 424.820 601.810, 358.749 606.979 C 284.408 612.795, 276.714 664.897, 340.455 730.860 C 410.985 803.848, 467.560 799.003, 473.089 719.500 C 477.682 653.456, 495.047 640.216, 580 637.984 C 649.505 636.158, 650.369 635.382, 642.407 582.058 C 630.083 499.522, 692.558 429.814, 758.982 451.984 C 830.126 475.731, 762.472 352.731, 680.571 309.427 C 657.010 296.970, 630.819 291.378, 604.500 293.187" stroke="none" fill="#f3f3f3" fill-rule="evenodd"/><path d="M 423.500 5.963 C 362.494 15.065, 302.260 31.799, 263.500 50.413 C 131.950 113.589, 37.482 254.255, 3.228 437.965 C -0.231 456.520, -1.630 643.341, 1.536 664 C 34.571 879.555, 169.552 1014.006, 399.500 1060.398 C 730.705 1127.220, 1025.739 966.336, 1054.987 702.956 C 1058.454 671.728, 1060.509 655.352, 1062.634 642 C 1063.482 636.672, 1064.362 622.618, 1064.638 610 C 1064.908 597.625, 1065.328 579.400, 1065.571 569.500 C 1066.775 520.433, 1066.278 461.878, 1064.636 459.220 C 1062.859 456.345, 1061.853 446.403, 1061.020 423.500 C 1058.864 364.209, 1052.229 327.271, 1036.470 286.824 C 980.567 143.341, 838.751 41.803, 646 7.253 C 616.783 2.016, 456.196 1.085, 423.500 5.963 M 604.500 293.187 C 563.515 296.004, 523.757 319.940, 489.673 362.317 C 457.428 402.407, 444.259 443.876, 441.978 512.500 C 439.567 585.071, 424.820 601.810, 358.749 606.979 C 284.408 612.795, 276.714 664.897, 340.455 730.860 C 410.985 803.848, 467.560 799.003, 473.089 719.500 C 477.682 653.456, 495.047 640.216, 580 637.984 C 649.505 636.158, 650.369 635.382, 642.407 582.058 C 630.083 499.522, 692.558 429.814, 758.982 451.984 C 830.126 475.731, 762.472 352.731, 680.571 309.427 C 657.010 296.970, 630.819 291.378, 604.500 293.187" stroke="none" fill="#1c1c1c" fill-rule="evenodd"/></svg>