<svg xmlns="http://www.w3.org/2000/svg" width="400" height="400" viewBox="0 0 400 400" version="1.1"><path d="M 182.182 113.280 L 181.120 114.560 180.287 119.528 L 179.455 124.495 176.701 125.815 L 173.948 127.134 170.629 127.673 L 167.310 128.211 163.773 125.106 L 160.236 122 158.141 122 L 156.046 122 154.573 124.250 L 153.099 126.500 154.064 130.790 L 155.028 135.079 154.074 136.862 L 153.120 138.645 149.228 141.342 L 145.337 144.039 141.565 142.463 L 137.793 140.887 134.888 141.525 L 131.983 142.163 130.930 144.131 L 129.877 146.099 132.965 150.760 L 136.052 155.422 135.587 156.635 L 135.121 157.848 132.548 161.924 L 129.975 166 125.098 166 L 120.222 166 118.045 167.762 L 115.869 169.525 116.865 172.145 L 117.861 174.765 120.931 176.951 L 124 179.136 124 185.009 L 124 190.882 122.750 191.683 L 121.500 192.484 116.500 194.497 L 111.500 196.510 111.173 198.810 L 110.846 201.110 112 202.500 L 113.154 203.890 118.010 205.503 L 122.867 207.116 123.433 210.058 L 124 213 124.568 215.948 L 125.136 218.895 122.397 221.198 L 119.657 223.500 117.829 225.250 L 116 227 116 228.326 L 116 229.651 118.370 231.877 L 120.739 234.104 123.370 233.443 L 126 232.783 128.397 233.385 L 130.794 233.987 133.017 237.743 L 135.240 241.500 135.245 243.670 L 135.250 245.840 133.125 248.824 L 131 251.809 131 253.294 L 131 254.778 132.750 256.922 L 134.500 259.065 139.274 257.430 L 144.049 255.795 146.274 256.403 L 148.500 257.011 151.482 259.657 L 154.463 262.303 154.482 269.401 L 154.500 276.500 156.868 276.835 L 159.235 277.170 163.712 273.955 L 168.189 270.740 172.344 271.969 L 176.500 273.197 178.206 274.714 L 179.912 276.230 180.565 280.583 L 181.217 284.936 182.554 286.045 L 183.890 287.154 186.161 286.827 L 188.431 286.500 190.698 283 L 192.965 279.500 194.022 278.250 L 195.079 277 199.848 277 L 204.618 277 206.155 278.250 L 207.693 279.500 209.928 283.250 L 212.163 287 214.459 287 L 216.755 287 217.804 285.737 L 218.852 284.473 220.074 279.622 L 221.295 274.770 225.398 272.907 L 229.500 271.044 231.368 271.022 L 233.236 271 236.653 274 L 240.070 277 242.412 277 L 244.755 277 245.979 275.526 L 247.202 274.051 246.519 268.166 L 245.836 262.281 249.668 259.086 L 253.500 255.891 256.500 256.453 L 259.500 257.016 263.714 257.634 L 267.928 258.252 269.061 255.765 L 270.195 253.277 268.585 250.389 L 266.975 247.500 265.840 245.905 L 264.705 244.310 265.331 241.905 L 265.957 239.500 268.367 236.521 L 270.777 233.542 276.523 233.021 L 282.269 232.500 283.784 230.209 L 285.299 227.918 280.649 223.588 L 276 219.259 276.056 216.379 L 276.113 213.500 277.306 210.057 L 278.500 206.615 282 205.722 L 285.500 204.830 287.250 203.260 L 289 201.690 289 199.918 L 289 198.145 286.541 196.211 L 284.082 194.277 281.056 193.023 L 278.030 191.770 277.021 188.135 L 276.011 184.500 276.006 181.832 L 276 179.163 279.328 177.106 L 282.657 175.049 283.761 172.624 L 284.866 170.199 283.614 168.487 L 282.361 166.774 276.476 166.137 L 270.591 165.500 267.829 161.500 L 265.066 157.500 265.033 155.794 L 265 154.089 267.500 150.405 L 270 146.721 270 145.432 L 270 144.143 268.429 142.571 L 266.857 141 264.379 141 L 261.901 141 258.950 142.526 L 256 144.051 253.250 142.621 L 250.500 141.190 248.116 138.638 L 245.733 136.087 246.318 133.160 L 246.903 130.233 247.524 127.760 L 248.145 125.288 246.429 123.571 L 244.712 121.855 242.220 122.481 L 239.727 123.107 236.277 125.738 L 232.828 128.369 228.203 127.132 L 223.578 125.895 222.344 124.871 L 221.110 123.846 219.994 118.471 L 218.878 113.096 216.939 112.481 L 215 111.865 212.983 112.505 L 210.966 113.145 209.026 116.949 L 207.085 120.753 205.461 121.377 L 203.836 122 199.512 122 L 195.188 122 191.595 117 L 188.003 112 185.624 112 L 183.245 112 182.182 113.280 M 193.500 134.629 L 190.500 135.039 186 136.066 L 181.500 137.093 177.250 138.682 L 173 140.272 173 141.689 L 173 143.106 183.203 160.655 L 193.406 178.204 195.768 179.102 L 198.130 180 202.697 180 L 207.264 180 210.685 182.114 L 214.106 184.228 218.084 189.614 L 222.063 195 243.012 195 L 263.962 195 264.595 192.480 L 265.227 189.959 264.098 185.477 L 262.970 180.994 260.893 175.443 L 258.816 169.893 253.966 162.696 L 249.116 155.500 243.991 151.136 L 238.865 146.773 233.183 143.351 L 227.500 139.929 220 137.576 L 212.500 135.223 204.500 134.721 L 196.500 134.219 193.500 134.629 M 157.181 150.951 L 152.044 155.012 147.082 162.077 L 142.121 169.142 139.636 175.821 L 137.150 182.500 136.075 187.799 L 135 193.098 135.017 199.799 L 135.035 206.500 136.491 213.372 L 137.946 220.243 141.957 228.528 L 145.967 236.814 153.298 244.585 L 160.629 252.356 162.205 251.752 L 163.781 251.147 173.028 235.823 L 182.276 220.500 183.832 217.879 L 185.389 215.258 182.694 209.254 L 180 203.250 180 199.321 L 180 195.393 182.647 190.080 L 185.294 184.768 183.589 181.881 L 181.883 178.993 173.385 164.247 L 164.886 149.500 163.602 148.195 L 162.319 146.890 157.181 150.951 M 195.775 191.518 L 193.050 193.038 192.025 194.953 L 191 196.869 191 200.011 L 191 203.154 194.048 206.202 L 197.097 209.250 201.195 208.701 L 205.293 208.151 207.374 206.070 L 209.455 203.990 209.455 199.995 L 209.455 196 206.977 193.524 L 204.500 191.048 201.500 190.524 L 198.500 189.999 195.775 191.518 M 219.536 207.481 L 218 210 216.553 212.384 L 215.106 214.768 209.856 217.384 L 204.607 220 199.959 220 L 195.310 220 193.853 221.750 L 192.396 223.500 182.623 239.742 L 172.850 255.983 173.175 257.742 L 173.500 259.500 180.500 261.975 L 187.500 264.450 200 264.396 L 212.500 264.343 218.500 262.558 L 224.500 260.774 231 257.386 L 237.500 253.998 243.793 248.381 L 250.086 242.764 254.063 236.907 L 258.040 231.050 261.151 223.283 L 264.261 215.515 264.381 210.507 L 264.500 205.500 242.786 205.231 L 221.072 204.961 219.536 207.481" stroke="none" fill="#2565ac" fill-rule="evenodd"/></svg>