<svg xmlns="http://www.w3.org/2000/svg" width="1080" height="1080" viewBox="0 0 1080 1080" version="1.1"><path d="M 349 25.505 C 325.628 30.661, 310.338 34.838, 299.500 39.027 C 296.750 40.090, 292.025 41.838, 289 42.912 C 273.831 48.297, 252.692 58.771, 236.208 69.070 C 230.548 72.607, 224.452 76.400, 222.663 77.500 C 219.812 79.252, 205.693 89.894, 192 100.611 C 179.526 110.374, 151.919 138.176, 140 152.978 C 138.075 155.369, 134.242 160.064, 131.483 163.412 C 121.744 175.231, 102.398 202.613, 94.682 215.500 C 83.187 234.701, 63.767 271.312, 60.470 280 C 59.739 281.925, 57.045 288.225, 54.484 294 C 51.922 299.775, 47.831 309.900, 45.392 316.500 C 42.953 323.100, 40.596 329.175, 40.155 330 C 39.714 330.825, 37.440 337.575, 35.102 345 C 32.763 352.425, 29.911 361.425, 28.764 365 C 24.089 379.570, 17.216 408.055, 13.442 428.500 C 9.788 448.293, 10.699 446.802, 14.969 426 C 50.356 253.622, 142.524 115.921, 262.937 55.532 C 287.658 43.134, 310.982 35.326, 349.563 26.534 C 357.778 24.661, 363.375 23.143, 362 23.159 C 360.625 23.175, 354.775 24.231, 349 25.505 M 756 43.420 C 757.925 44.221, 767.150 47.872, 776.500 51.534 C 903.486 101.265, 995.413 191.510, 1034.690 305 C 1037.640 313.525, 1039.748 318.713, 1039.374 316.529 C 1032.257 274.960, 988.148 202.231, 942.404 156.640 C 905.733 120.092, 853.064 83.658, 808 63.665 C 803.325 61.591, 797.700 59.038, 795.500 57.992 C 793.300 56.947, 786.775 54.244, 781 51.986 C 775.225 49.728, 768.025 46.827, 765 45.538 C 761.975 44.250, 757.925 42.919, 756 42.580 C 752.500 41.965, 752.500 41.965, 756 43.420 M 739.079 337.643 C 731.706 340.224, 727.071 343.735, 713.500 357.017 C 688.067 381.908, 664.009 388.067, 584.500 390.039 C 500.971 392.111, 479.276 402.456, 420.415 468.283 C 359.370 536.553, 374.159 555.801, 457 515.900 C 504.506 493.018, 548.138 485.126, 594.681 490.995 C 636.710 496.295, 635.790 497.455, 580.891 508.387 C 539.949 516.540, 529.587 519.434, 501 530.696 C 393.134 573.193, 295.777 666.170, 292.257 730.049 C 289.891 773.003, 326.102 751.444, 365.425 686.488 C 393.173 640.652, 396.229 639.977, 431 672.002 C 458.104 696.966, 474.379 707.418, 498.500 715.355 C 596.441 747.582, 717.519 675.549, 764.721 556.973 C 802.927 460.994, 786.563 321.020, 739.079 337.643 M 42.027 792.912 C 41.992 794.739, 57.623 826.403, 63.051 835.500 C 81.981 867.228, 99.485 889.580, 126.483 916.500 C 144.303 934.269, 149.428 938.774, 170.805 955.465 C 186.505 967.723, 219.580 988.682, 237.750 997.888 C 245.978 1002.056, 241.884 999.110, 232.250 993.930 C 150.420 949.932, 88.527 886.871, 50.417 808.662 C 45.817 799.223, 42.042 792.135, 42.027 792.912" stroke="none" fill="#ebebeb" fill-rule="evenodd"/><path d="M 439 11.124 C 306.268 27.192, 236.772 56.451, 167.385 125.479 C 87.417 205.033, 35.340 312.801, 10.324 450.500 C 6.423 471.973, 5.410 641.514, 9.039 665.500 C 31.152 811.637, 91.277 906.076, 210.026 981.193 C 363.362 1078.188, 604.927 1095.150, 788 1021.776 C 942.860 959.710, 1033.974 848.913, 1048.503 705 C 1049.363 696.475, 1051.013 682.300, 1052.168 673.500 C 1053.323 664.700, 1054.218 655.925, 1054.157 654 C 1054.096 652.075, 1053.770 643.650, 1053.432 635.277 C 1052.840 620.613, 1052.916 619.760, 1055.488 612.035 C 1058.137 604.081, 1058.149 603.912, 1057.001 591.015 C 1056.198 581.990, 1056.149 575.946, 1056.840 571.257 C 1058.234 561.807, 1057.263 508.859, 1055.351 490 C 1054.082 477.488, 1054.007 473.361, 1054.962 468.589 C 1056.939 458.710, 1054.132 398.579, 1050.453 372 C 1024.834 186.916, 868.855 52.110, 636 13.807 C 615.965 10.512, 461.444 8.407, 439 11.124 M 739.079 337.643 C 731.706 340.224, 727.071 343.735, 713.500 357.017 C 688.067 381.908, 664.009 388.067, 584.500 390.039 C 500.971 392.111, 479.276 402.456, 420.415 468.283 C 359.370 536.553, 374.159 555.801, 457 515.900 C 504.506 493.018, 548.138 485.126, 594.681 490.995 C 636.710 496.295, 635.790 497.455, 580.891 508.387 C 539.949 516.540, 529.587 519.434, 501 530.696 C 393.134 573.193, 295.777 666.170, 292.257 730.049 C 289.891 773.003, 326.102 751.444, 365.425 686.488 C 393.173 640.652, 396.229 639.977, 431 672.002 C 458.104 696.966, 474.379 707.418, 498.500 715.355 C 596.441 747.582, 717.519 675.549, 764.721 556.973 C 802.927 460.994, 786.563 321.020, 739.079 337.643" stroke="none" fill="#1c1c1c" fill-rule="evenodd"/></svg>